<svg xmlns="http://www.w3.org/2000/svg" viewBox="0 0 279.63 268.09"><defs><style>.cls-1,.cls-2{fill:#fff;}.cls-2{font-size:64.48px;font-family:Ubuntu-Bold, Ubuntu;font-weight:700;}.cls-3{letter-spacing:-0.02em;}</style></defs><g id="Layer_2" data-name="Layer 2"><g id="Layer_2-2" data-name="Layer 2"><path class="cls-1" d="M21.68,185.59,93.24,21.5,111,62.22l-19.48,45c-4.37,8.9,10,9.68,27.45,10.56-13.92.42-32.28.27-34.81,6.44l-22.49,52c-.87,4.16,1.82,7.27,7.94,9.38Z"/><path class="cls-1" d="M133.84,114.18l31,71.41H109.55C130.61,166.83,137.5,142.38,133.84,114.18Z"/><path class="cls-1" d="M257.94,21.5,186.39,185.59l-17.74-40.72L218,30.88c.87-4.16-1.82-7.27-8-9.38Z"/><path class="cls-1" d="M145.78,92.91l-31-71.41h24c-15.88.84-13.75,7.34-11.63,14.59S145.78,92.91,145.78,92.91Z"/><path class="cls-1" d="M255.14,11a13.48,13.48,0,0,1,13.48,13.48V243.61a13.48,13.48,0,0,1-13.48,13.48H24.48A13.49,13.49,0,0,1,11,243.61V24.48A13.49,13.49,0,0,1,24.48,11H255.14m0-11H24.48A24.51,24.51,0,0,0,0,24.48V243.61a24.51,24.51,0,0,0,24.48,24.48H255.14a24.51,24.51,0,0,0,24.48-24.48V24.48A24.51,24.51,0,0,0,255.14,0Z"/><text class="cls-2" transform="translate(20.56 243.23)"><tspan class="cls-3">S</tspan><tspan x="36.24" y="0">TUDIO</tspan></text></g></g></svg>