<?xml version="1.0" encoding="UTF-8"?><svg id="a" xmlns="http://www.w3.org/2000/svg" viewBox="0 0 236.26 164.09"><defs><style>.b{fill:#fff;}</style></defs><g><path class="b" d="M0,164.09L71.56,0l17.73,40.72-19.48,45.01c-4.37,8.9,9.98,9.69,27.45,10.56-13.92,.42-32.27,.27-34.81,6.44l-22.49,51.98c-.87,4.16,1.82,7.27,7.95,9.38H0Z"/><path class="b" d="M112.16,92.68l31.03,71.41h-55.32c21.05-18.76,27.94-43.21,24.29-71.41Z"/></g><g><path class="b" d="M236.26,0l-71.56,164.09-17.73-40.72L196.3,9.38c.87-4.16-1.82-7.27-7.95-9.38h47.9Z"/><path class="b" d="M124.1,71.41L93.07,0h24c-15.87,.84-13.75,7.34-11.62,14.59,2.12,7.24,18.66,56.82,18.66,56.82Z"/></g></svg>