<svg xmlns="http://www.w3.org/2000/svg" viewBox="0 0 446.32 354.23"><g id="Layer_2" data-name="Layer 2"><g id="Layer_2-2" data-name="Layer 2"><path d="M442.32,157.66c-.07,3,1.43,5,4,6.31H406.91c3.06-1.05,4.1-3.33,4-6.31v-62a14.25,14.25,0,0,0-11-13.91,13.68,13.68,0,0,0,11-13.38V.12h35.41c-2.58,1.34-4.07,3.34-4,6.31Z"/><path d="M0,164.09,71.56,0,89.29,40.72l-19.48,45c-4.37,8.9,10,9.69,27.45,10.56-13.92.42-32.28.27-34.81,6.44L40,154.71c-.88,4.16,1.82,7.27,7.94,9.38Z"/><path d="M112.16,92.68l31,71.41H87.87C108.92,145.33,115.81,120.88,112.16,92.68Z"/><path d="M343.49,164h31.4V95.69a14.25,14.25,0,0,1,11-13.91H343.49Z"/><path d="M250.57,354H215.16c3.06-1.06,4.1-3.34,4-6.31v-62a14,14,0,0,0-11-13.65,14,14,0,0,0,11-13.65V196.76c-.09-4.12-1.42-5.38-4.47-6.62h39.88c-2.58,1.33-4.07,3.34-4,6.3Z"/><path d="M333.32,221.63h27.77a14.26,14.26,0,0,1,13.92,11h0V190.09l-57.44.09Z"/><path d="M333.19,322.64H280.67a14.27,14.27,0,0,1-13.92-11h0v42.5h82.19Z"/><path d="M348.78,354.14l-26.49-53.86c-3.94-8-11.46-12.92-18.06-11.78,4.92-4.54,5.63-13.5,1.68-21.52l-37.8-76.8h35.08l81.25,164Z"/><path d="M205,190.14,133.45,354.23l-17.73-40.72,49.33-114c.88-4.16-1.82-7.27-7.94-9.38Z"/><path d="M92.85,261.55l-31-71.41h24c-15.88.84-13.75,7.34-11.63,14.59S92.85,261.55,92.85,261.55Z"/><path d="M172.21,74.55C199.81,49.77,187.16,6.11,153.68.11c65.47-2.17,84.94,61.28,22,82l21.57,49.83c7.9,15.92,24.79,26,44.92,28.05-32.76,7.15-64.34,9.06-80.7-29.72L138,75.86C130.66,60.15,112.81,62.17,101.19,63c36.25-12.08,61-7.83,70.92,11.36Z"/><path d="M327.19,149.2c-10.7,9.36-23.75,14.86-37.83,14.86-36.4,0-66.92-36.72-66.92-82,0-39,22.92-71.69,52.27-80a53.76,53.76,0,0,1,14.65-2c14.08,0,27.12,5.49,37.83,14.84l-.06,60.72C325.61,33.32,309.27,0,289.34,0a19,19,0,0,0-8.43,2c-16.88,8.29-29.48,41-29.48,80,0,45.29,17,82,37.91,82,20.23,0,36.76-34.3,37.85-77.49Z"/></g></g></svg>